# xmcd CD database file
#
# Track frame offsets:
#	151
#	26254
#	44641
#	66346
#	96289
#	105619
#	118958
#	135578
#	157902
#	174813
#	201427
#	221515
#	233723
#	256974
#	277410
#	302045
#	321197
#
# Disc length: 4592 seconds
#
# Revision: 0
# Processed by: cddbd v1.4PL0 Copyright (c) Steve Scherf et al.
# Submitted via: CDex 1.50beta10
#
DISCID=f911ee11
DTITLE=Various Artist - local live v.6 Unlimited bandwith [CD2]
DYEAR=2001
DGENRE=Jazz
TTITLE0=My Morning Jacket-The Bear
TTITLE1=Experimental Aircraft-Suspended
TTITLE2=Unit 33-untitled #3
TTITLE3=Earl Haven Trio-osiris
TTITLE4=Gonsemble-Chaz's Drawers
TTITLE5=U.T. Brazilian Ensemble-Minha Fulo
TTITLE6=Pearly Gates-Coke vs. Pepsi
TTITLE7=Town and Country-Hat versus Hood
TTITLE8=Call and Response-The Fool
TTITLE9=Soniquete-Mi Carreta
TTITLE10=Death Cab for Cutie-A Movie Script Ending
TTITLE11=The New Year-Great Expectations
TTITLE12=Mercova-State
TTITLE13=Array Gun-Tapioca
TTITLE14=Water Falls-The Idea of North
TTITLE15=Calla-Fear of Fire Flies
TTITLE16=Centromatic-Flashes and Cables
EXTD=YEAR: 2001
EXTT0=
EXTT1=
EXTT2=
EXTT3=
EXTT4=
EXTT5=
EXTT6=
EXTT7=
EXTT8=
EXTT9=
EXTT10=
EXTT11=
EXTT12=
EXTT13=
EXTT14=
EXTT15=
EXTT16=
PLAYORDER=
